<?xml version="1.0" encoding="UTF-8" standalone="no"?>
<svg
   version="1.1"
   width="480"
   height="160"
   viewBox="0 0 480 160"
   id="svg13"
   sodipodi:docname="撫州話.svg"
   inkscape:version="1.4 (86a8ad7, 2024-10-11)"
   xmlns:inkscape="http://www.inkscape.org/namespaces/inkscape"
   xmlns:sodipodi="http://sodipodi.sourceforge.net/DTD/sodipodi-0.dtd"
   xmlns="http://www.w3.org/2000/svg"
   xmlns:svg="http://www.w3.org/2000/svg">
  <defs
     id="defs13" />
  <sodipodi:namedview
     id="namedview13"
     pagecolor="#ffffff"
     bordercolor="#000000"
     borderopacity="0.25"
     inkscape:showpageshadow="2"
     inkscape:pageopacity="0.0"
     inkscape:pagecheckerboard="0"
     inkscape:deskcolor="#d1d1d1"
     inkscape:zoom="4.6333333"
     inkscape:cx="240.10791"
     inkscape:cy="79.964029"
     inkscape:window-width="2450"
     inkscape:window-height="1405"
     inkscape:window-x="99"
     inkscape:window-y="-11"
     inkscape:window-maximized="1"
     inkscape:current-layer="g13" />
  <g
     transform="translate(0,0) scale(0.303,0.303)"
     id="g13">
    <g
       id="g12"
       transform="translate(0,0)">
      <g
         id="g6"
         transform="translate(0,0)">
        <g
           id="g5"
           transform="translate(0,0) scale(1,1)">
          <path
             fill="currentColor"
             d=" M 273.52 70.63 C 285.80 65.31 298.10 77.84 296.59 89.84 C 294.71 102.83 293.88 116.07 290.71 128.83 C 287.46 137.04 286.39 145.92 286.68 154.72 C 293.46 153.37 299.87 150.67 306.42 148.54 C 315.56 145.85 321.50 135.72 331.96 137.03 C 339.94 140.04 345.97 146.76 348.85 154.73 C 345.30 156.57 341.88 158.68 338.17 160.19 C 328.31 164.78 316.85 163.86 307.21 169.10 C 296.86 174.64 287.60 182.00 278.19 188.97 C 279.52 185.17 280.71 181.25 280.95 177.21 C 276.05 172.37 266.62 173.15 263.49 166.66 C 264.30 151.94 267.17 137.37 269.98 122.92 C 274.42 110.18 276.06 96.80 278.18 83.55 C 274.68 81.57 271.44 78.50 267.04 79.02 C 262.73 79.56 259.44 82.38 255.70 84.23 C 259.95 77.90 266.83 73.93 273.52 70.63 Z"
             id="path1" />
          <path
             fill="currentColor"
             d=" M 148.67 91.92 C 154.63 94.86 161.49 96.14 166.86 100.16 C 171.49 106.36 176.83 113.61 175.48 121.85 C 172.26 137.60 173.11 153.74 171.61 169.67 C 171.14 173.51 172.10 178.03 175.56 180.25 C 178.70 182.44 182.87 184.34 183.45 188.62 C 183.73 193.05 185.30 198.48 182.40 202.41 C 179.42 205.55 174.94 206.78 172.11 210.11 C 169.24 213.20 168.31 217.57 167.70 221.60 C 166.22 234.49 167.79 247.57 166.24 260.45 C 164.42 268.38 163.44 276.87 166.11 284.71 C 178.02 275.58 184.99 262.01 192.29 249.25 C 196.42 242.13 197.13 233.72 200.24 226.19 C 202.69 220.36 205.35 214.55 209.04 209.39 C 209.09 212.26 209.25 215.24 208.00 217.93 C 203.66 229.72 199.40 241.69 192.56 252.31 C 187.47 264.19 182.44 276.11 176.76 287.73 C 173.41 294.40 168.10 299.91 164.79 306.57 C 163.25 324.78 163.18 343.27 165.65 361.42 C 167.63 376.22 166.43 391.21 168.04 406.04 C 170.08 422.88 175.49 439.26 175.19 456.37 C 168.94 455.62 162.09 461.99 156.33 457.67 C 153.25 454.62 151.35 450.59 149.05 446.97 C 143.87 437.66 136.38 429.90 130.92 420.78 C 133.95 423.30 136.91 425.93 140.31 427.95 C 143.12 416.90 137.12 406.26 138.14 395.20 C 137.74 380.89 133.53 366.97 133.15 352.63 C 121.17 356.82 115.71 369.83 104.90 375.84 C 96.80 381.27 85.08 386.12 76.12 379.94 C 68.84 375.95 65.37 367.99 63.50 360.30 C 64.90 359.18 67.71 356.93 69.12 355.80 C 72.76 358.89 76.41 362.00 80.00 365.17 C 97.55 357.05 111.23 343.10 125.65 330.62 C 127.64 328.69 130.04 327.02 131.33 324.50 C 132.27 315.71 131.98 306.85 132.57 298.05 C 134.77 279.55 131.12 260.76 134.36 242.33 C 135.29 233.18 137.90 222.55 132.78 214.26 C 124.85 211.30 115.88 211.97 107.95 208.89 C 101.64 204.08 95.09 199.14 91.00 192.18 C 88.85 187.91 87.60 183.28 86.10 178.76 C 93.78 181.41 100.70 186.12 108.83 187.37 C 118.95 189.83 129.51 189.16 139.59 186.86 C 141.27 163.59 141.96 140.25 142.96 116.95 C 143.29 111.25 136.88 108.78 132.81 106.56 C 136.45 100.09 142.85 96.18 148.67 91.92 Z"
             id="path2" />
          <path
             fill="currentColor"
             d=" M 310.80 216.95 C 316.03 214.97 320.38 219.08 324.84 220.90 C 320.03 228.58 313.67 235.15 306.12 240.15 C 291.84 249.97 278.21 260.86 263.06 269.35 C 267.54 262.50 274.72 256.98 276.43 248.63 C 265.61 248.25 254.85 247.20 244.05 246.63 C 242.03 241.45 237.16 235.44 240.87 229.93 C 242.68 225.84 246.71 223.67 250.28 221.35 C 249.32 224.40 247.97 227.31 246.38 230.08 C 248.26 232.92 250.18 235.73 252.10 238.56 C 266.00 237.70 278.78 232.12 291.64 227.34 C 298.39 224.55 304.12 219.81 310.80 216.95 Z"
             id="path3" />
          <path
             fill="currentColor"
             d=" M 377.01 237.44 C 381.39 240.84 386.74 243.99 389.11 249.25 C 388.94 259.60 387.90 269.95 387.94 280.33 C 396.08 278.34 404.33 275.90 411.17 270.90 C 410.28 268.54 410.15 266.68 409.46 264.48 C 423.59 266.74 438.04 266.43 452.21 264.66 C 455.91 263.97 462.43 263.47 463.74 268.31 C 464.86 270.96 462.33 273.00 460.97 274.93 C 456.68 280.14 451.61 286.47 443.98 285.72 C 428.04 286.96 412.27 289.68 396.55 292.49 C 386.07 293.44 379.04 302.55 373.82 310.80 C 365.68 324.13 356.49 336.79 347.54 349.59 C 339.50 359.73 329.35 368.13 322.65 379.35 C 335.59 378.68 347.98 374.69 360.36 371.22 C 365.27 370.30 369.09 366.98 373.52 365.00 C 386.82 363.84 400.22 367.89 410.98 375.77 C 408.65 381.14 407.43 386.93 405.07 392.27 C 397.83 400.41 388.60 406.43 379.99 413.00 C 368.04 420.94 354.69 426.42 341.82 432.66 C 336.94 435.37 331.35 435.73 325.93 436.30 C 337.32 427.66 349.81 418.00 354.62 403.97 C 333.65 404.70 315.37 416.20 295.10 420.14 C 291.18 420.33 286.21 423.55 282.83 420.19 C 276.20 413.39 270.03 405.22 268.77 395.52 C 267.86 388.76 268.02 380.44 273.42 375.42 C 285.16 366.06 301.15 363.68 312.04 353.06 C 324.81 338.58 336.42 322.97 345.36 305.81 C 341.61 305.83 337.66 304.77 334.10 306.30 C 323.11 310.56 313.68 318.44 302.03 321.07 C 291.59 323.49 281.97 328.37 271.68 331.25 C 266.48 332.76 261.77 335.52 256.96 337.93 C 242.77 345.40 227.85 351.37 212.74 356.68 C 207.59 358.53 202.21 359.56 196.85 360.55 C 196.28 352.46 195.32 344.26 196.29 336.20 C 201.02 328.08 208.43 321.93 216.16 316.77 C 212.43 322.99 209.00 329.41 206.89 336.39 C 218.85 336.97 229.83 332.00 241.15 329.11 C 245.73 327.90 249.45 324.76 253.82 323.05 C 260.17 321.02 266.86 320.66 273.34 319.23 C 284.42 316.24 294.61 310.81 305.13 306.34 C 316.46 302.13 328.19 299.03 339.38 294.44 C 345.40 292.10 351.10 288.65 357.64 287.96 C 360.49 282.54 363.72 277.32 367.68 272.64 C 371.49 268.27 371.84 262.17 374.18 257.05 C 376.97 250.89 376.22 244.00 377.01 237.44 Z"
             id="path4" />
          <path
             fill="currentColor"
             d=" M 318.85 264.76 C 325.69 261.29 332.21 257.20 339.14 253.91 C 322.38 270.21 306.77 287.70 289.69 303.67 C 283.00 307.76 274.66 301.91 272.78 295.16 C 271.26 288.04 271.92 280.49 274.44 273.68 C 279.73 274.55 285.18 277.54 290.62 275.60 C 300.24 272.60 309.67 268.91 318.85 264.76 Z"
             id="path5" />
        </g>
      </g>
      <g
         transform="translate(528,0)"
         id="g9">
        <g
           id="g8"
           transform="translate(0,0) scale(1,1)">
          <path
             fill="currentColor"
             d=" M 140.39 110.70 C 148.11 107.80 155.63 103.70 163.87 102.69 C 171.61 103.67 179.54 103.75 187.05 106.09 C 189.71 117.03 195.08 127.04 198.04 137.87 C 199.89 146.79 200.04 156.00 199.19 165.04 C 197.62 178.82 199.59 192.63 199.70 206.42 C 216.77 197.50 234.22 189.16 252.18 182.20 C 267.78 179.91 282.34 189.57 292.08 200.94 C 302.19 211.52 299.53 229.36 311.29 238.72 C 317.66 238.68 323.25 234.78 329.43 233.54 C 338.69 230.81 348.27 233.42 357.67 233.37 C 364.62 233.67 371.26 226.90 378.05 230.79 C 391.84 234.87 401.92 245.41 410.24 256.61 C 414.28 268.38 411.91 280.95 411.09 293.02 C 411.10 297.98 409.61 302.73 407.74 307.25 C 404.70 314.66 403.40 322.97 398.37 329.44 C 394.42 334.47 390.05 339.20 386.66 344.64 C 383.82 349.00 381.60 354.08 376.99 356.95 C 356.46 371.19 337.28 387.28 317.44 402.47 C 308.73 409.00 298.83 413.66 289.84 419.78 C 283.01 424.90 274.41 425.63 266.39 427.66 C 281.32 414.72 298.18 404.18 313.09 391.20 C 323.52 385.21 331.05 375.60 340.91 368.85 C 355.43 358.93 362.61 342.22 371.74 327.84 C 380.89 313.44 381.08 295.55 379.79 279.11 C 375.86 271.68 368.47 267.03 362.13 261.83 C 358.88 259.72 355.89 256.05 351.63 256.37 C 340.63 256.75 329.51 256.66 318.66 258.76 C 315.06 260.43 310.41 262.40 309.72 266.79 C 306.84 277.08 308.67 288.57 303.04 298.04 C 296.74 308.93 289.23 319.32 279.69 327.62 C 269.86 335.17 259.20 341.84 247.69 346.49 C 240.04 347.86 231.76 346.96 225.00 343.03 C 221.39 338.62 217.98 333.97 214.89 329.19 C 212.93 318.25 214.87 306.27 220.64 296.67 C 226.88 287.70 233.89 279.29 240.99 270.99 C 253.25 256.49 271.31 249.34 287.85 241.05 C 286.03 233.79 284.61 226.36 281.21 219.62 C 276.49 213.49 270.68 208.28 266.48 201.74 C 252.46 202.42 238.27 205.27 225.75 211.77 C 217.18 217.86 209.05 224.60 200.15 230.23 C 197.95 252.61 196.89 275.09 194.54 297.46 C 192.55 315.91 191.81 334.46 191.97 353.02 C 192.16 361.36 190.39 369.56 188.71 377.69 C 187.36 382.97 186.31 388.63 183.14 393.20 C 174.95 399.00 167.11 408.07 156.00 406.04 C 142.96 405.52 130.76 399.27 117.60 399.76 C 105.51 401.00 93.56 397.83 81.91 395.08 C 77.31 394.41 76.00 389.45 73.86 386.08 C 70.19 378.39 65.72 370.59 64.68 362.02 C 66.65 349.74 71.25 337.76 78.70 327.72 C 84.62 321.08 85.14 311.08 92.68 305.69 C 115.34 285.37 138.10 265.16 159.87 243.87 C 166.60 237.11 176.25 230.83 176.23 220.17 C 178.23 202.53 178.77 184.62 176.09 167.03 C 174.52 150.98 172.63 133.37 161.30 120.91 C 153.83 118.70 146.24 116.15 140.39 110.70 M 161.08 264.04 C 152.45 274.68 144.04 285.60 133.54 294.51 C 119.25 306.94 107.13 321.55 95.05 336.07 C 90.37 341.19 89.96 348.43 88.71 354.93 C 88.92 358.88 86.09 363.81 88.46 367.52 C 92.38 371.27 96.93 374.33 101.03 377.89 C 114.32 376.47 127.72 374.87 141.02 377.18 C 150.65 375.12 159.59 370.04 167.83 364.80 C 177.03 357.10 171.46 345.00 173.13 335.03 C 176.27 307.88 176.43 280.49 175.73 253.20 C 170.28 255.91 164.76 259.07 161.08 264.04 M 263.06 283.11 C 254.87 287.95 248.43 295.15 241.78 301.84 C 242.41 306.56 243.02 311.28 243.58 316.02 C 252.59 312.66 259.86 306.11 267.47 300.46 C 275.71 293.32 279.36 282.54 283.40 272.71 C 276.42 275.75 269.55 279.12 263.06 283.11 Z"
             id="path6" />
          <path
             fill="currentColor"
             d=" M 425.27 122.84 C 435.45 124.92 445.83 125.64 456.07 123.52 C 469.66 120.72 480.76 130.15 491.06 137.27 C 490.99 147.40 491.36 158.66 485.49 167.47 C 483.52 170.90 478.32 172.52 475.09 169.90 C 465.45 162.30 458.16 152.04 447.81 145.26 C 439.02 139.45 430.03 133.78 422.58 126.24 C 423.47 125.10 424.37 123.97 425.27 122.84 Z"
             id="path7" />
          <path
             fill="currentColor"
             d=" M 113.00 165.98 C 115.31 163.51 118.49 162.22 121.62 161.16 C 121.07 172.94 110.24 181.30 108.98 193.00 C 108.11 199.67 104.31 205.32 101.22 211.12 C 97.25 218.52 96.39 227.14 92.50 234.58 C 90.01 238.78 87.23 242.83 84.19 246.66 C 68.47 236.31 53.12 225.37 36.99 215.66 C 37.50 213.98 38.01 212.32 38.54 210.65 C 49.37 209.83 60.49 208.39 70.26 203.30 C 87.43 194.66 99.82 179.48 113.00 165.98 Z"
             id="path8" />
        </g>
      </g>
      <g
         transform="translate(1056,0)"
         id="g11">
        <g
           id="g10"
           transform="translate(0,0) scale(1,1)">
          <path
             fill="currentColor"
             d=" M 326.31 95.66 C 330.37 94.05 334.44 91.75 338.98 92.26 C 352.09 95.81 364.99 102.76 372.63 114.36 C 374.75 117.84 374.25 122.56 371.47 125.53 C 357.43 143.46 341.38 159.68 326.19 176.60 C 333.01 183.73 344.93 181.88 351.34 189.51 C 350.97 199.77 347.49 209.81 347.31 220.16 C 347.24 235.11 346.63 250.09 345.04 264.97 C 353.95 261.49 362.95 258.05 371.23 253.18 C 378.82 247.88 385.65 241.61 392.72 235.65 C 397.84 230.58 405.63 234.83 411.71 235.25 C 422.15 236.28 428.37 245.30 436.01 251.31 C 425.46 259.56 411.53 260.68 399.95 266.89 C 387.41 272.85 374.53 278.28 362.95 286.01 C 355.94 290.62 346.62 290.62 340.06 295.90 C 335.58 314.64 331.92 333.69 328.81 352.75 C 342.75 350.43 356.70 348.20 370.63 345.83 C 387.77 343.53 404.65 339.04 422.04 338.96 C 423.57 347.56 431.11 352.47 436.02 359.00 C 439.29 363.32 443.53 366.72 447.55 370.31 C 430.91 381.98 414.40 393.95 396.42 403.50 C 383.11 410.40 368.26 414.52 353.16 413.67 C 346.94 415.05 339.88 414.79 335.21 409.93 C 343.81 405.89 353.53 403.40 360.27 396.29 C 368.47 388.12 376.88 380.11 384.51 371.40 C 368.05 370.53 352.42 377.31 336.90 381.89 C 326.46 386.09 314.38 390.27 303.59 384.40 C 299.04 378.93 296.06 372.34 292.64 366.15 C 298.62 359.17 302.38 350.79 305.21 342.14 C 310.31 329.91 314.45 317.00 314.55 303.63 C 299.46 308.26 285.12 315.35 269.51 318.23 C 259.83 320.84 251.59 314.61 243.60 310.37 C 239.74 308.49 239.05 303.84 238.88 300.00 C 245.20 298.61 251.65 301.24 258.02 300.78 C 265.15 301.37 272.06 298.68 278.08 295.10 C 288.75 288.76 301.14 286.39 312.44 281.49 C 314.08 280.62 316.23 279.86 316.90 277.97 C 321.85 257.78 322.99 236.75 321.55 216.05 C 320.69 208.17 317.74 200.74 316.23 193.00 C 309.12 196.26 302.03 199.59 295.03 203.08 C 287.66 206.72 281.39 212.21 274.10 215.98 C 270.66 216.99 267.00 216.40 263.55 215.74 C 273.95 202.44 283.89 188.76 295.18 176.19 C 305.97 164.73 313.36 150.52 318.94 135.92 C 322.89 127.02 326.84 118.09 329.34 108.65 C 330.01 104.03 327.72 99.88 326.31 95.66 Z"
             id="path9" />
          <path
             fill="currentColor"
             d=" M 81.13 137.84 C 83.13 132.93 88.09 129.07 93.59 130.55 C 108.05 134.64 121.28 142.16 134.02 149.99 C 140.16 153.79 145.61 160.36 144.55 168.06 C 144.57 177.99 146.15 187.94 144.75 197.85 C 143.38 207.45 142.93 217.15 142.43 226.82 C 141.31 238.10 138.88 249.19 137.70 260.46 C 135.67 286.48 138.23 312.65 136.54 338.66 C 132.88 352.11 132.01 366.34 136.20 379.83 C 149.78 365.34 162.01 349.50 172.87 332.89 C 182.47 313.69 188.46 293.00 195.90 272.93 C 196.99 269.96 198.37 267.11 199.89 264.35 C 203.43 276.63 198.06 289.16 196.29 301.34 C 191.23 318.04 190.74 336.09 182.57 351.79 C 179.73 356.59 181.75 362.24 180.39 367.39 C 177.24 382.00 173.29 396.42 169.97 411.00 C 168.59 417.71 166.11 424.46 167.07 431.41 C 160.08 434.99 152.71 439.59 144.43 437.57 C 137.80 435.58 133.04 430.03 129.79 424.17 C 124.59 414.95 117.17 407.01 112.99 397.23 C 108.68 374.81 111.51 351.94 109.45 329.34 C 107.91 308.83 107.64 288.11 110.19 267.68 C 112.10 237.74 106.53 207.67 110.34 177.81 C 109.15 164.10 101.63 151.65 91.52 142.59 C 88.36 140.43 84.50 139.56 81.13 137.84 Z"
             id="path10" />
        </g>
      </g>
    </g>
  </g>
</svg>
