<?xml version="1.0" encoding="UTF-8" standalone="no"?>
<svg
   version="1.1"
   viewBox="0 0 160 160"
   id="svg5"
   sodipodi:docname="撫.svg"
   inkscape:version="1.4 (86a8ad7, 2024-10-11)"
   xmlns:inkscape="http://www.inkscape.org/namespaces/inkscape"
   xmlns:sodipodi="http://sodipodi.sourceforge.net/DTD/sodipodi-0.dtd"
   xmlns="http://www.w3.org/2000/svg"
   xmlns:svg="http://www.w3.org/2000/svg">
  <defs
     id="defs5" />
  <sodipodi:namedview
     id="namedview5"
     pagecolor="#ffffff"
     bordercolor="#000000"
     borderopacity="0.25"
     inkscape:showpageshadow="2"
     inkscape:pageopacity="0.0"
     inkscape:pagecheckerboard="0"
     inkscape:deskcolor="#d1d1d1"
     inkscape:zoom="4.9188115"
     inkscape:cx="56.721018"
     inkscape:cy="85.48813"
     inkscape:window-width="2450"
     inkscape:window-height="1405"
     inkscape:window-x="99"
     inkscape:window-y="-11"
     inkscape:window-maximized="1"
     inkscape:current-layer="g5" />
  <g
     transform="scale(0.303,0.303)"
     id="g5">
    <g
       id="g4"
       transform="translate(0,0)">
      <g
         id="g3"
         transform="translate(0,0)">
        <g
           id="g2"
           transform="translate(0,0) scale(1,1)">
          <path
             fill="currentColor"
             d=" M 279.16 78.81 C 283.98 79.30 289.07 80.93 291.92 85.09 C 295.92 91.12 300.26 97.59 301.25 104.92 C 300.03 108.67 297.32 111.74 295.81 115.37 C 290.42 134.16 276.69 149.44 272.82 168.81 C 284.09 169.62 295.24 166.47 305.16 161.32 C 315.69 155.88 328.02 154.71 337.87 147.87 C 346.11 143.01 353.32 134.10 363.85 135.15 C 371.65 137.78 379.52 145.41 377.42 154.37 C 376.23 160.08 369.24 161.27 365.01 164.01 C 353.52 168.77 343.60 176.50 332.06 181.16 C 314.98 188.58 303.11 203.41 288.89 214.81 C 278.80 221.32 272.52 231.83 264.14 240.16 C 262.21 242.68 258.65 245.15 259.17 248.78 C 261.75 252.79 265.01 256.32 268.03 260.01 C 280.33 256.94 292.85 255.02 305.33 252.92 C 305.95 247.58 306.58 242.17 305.28 236.89 C 307.46 236.01 309.58 234.85 311.92 234.47 C 318.70 237.35 323.64 243.54 330.43 246.45 C 341.82 246.09 352.22 240.38 363.46 238.94 C 368.77 237.63 376.82 239.93 379.19 233.15 C 380.59 230.84 382.52 228.65 383.14 225.94 C 381.75 223.06 380.01 220.37 378.48 217.56 C 381.56 216.78 384.87 215.76 387.99 216.96 C 399.52 221.72 407.58 232.60 411.62 244.06 C 410.50 249.89 402.76 250.60 398.23 253.17 C 397.83 260.80 392.54 266.62 389.14 273.08 C 383.23 283.29 378.48 294.48 369.57 302.57 C 366.21 305.42 364.17 309.45 363.64 313.80 C 383.13 311.02 402.73 308.50 421.90 303.82 C 430.60 301.67 440.23 299.67 448.87 303.12 C 453.51 307.49 455.99 313.68 458.85 319.29 C 452.49 322.14 445.84 325.52 438.62 324.34 C 419.95 322.46 400.92 323.03 382.57 327.17 C 370.97 329.10 357.71 326.49 348.26 335.26 C 336.52 342.11 332.28 355.69 322.79 364.73 C 318.66 370.72 313.62 375.91 307.94 380.44 C 317.77 382.05 326.21 376.32 334.91 372.95 C 343.63 369.60 352.29 366.03 361.35 363.71 C 373.58 362.98 386.10 364.34 397.71 368.39 C 401.82 369.23 403.70 373.10 405.96 376.12 C 407.24 378.19 408.76 380.92 407.31 383.30 C 400.07 394.53 388.92 402.29 379.52 411.53 C 375.42 415.12 372.41 419.96 367.51 422.58 C 357.01 428.54 347.10 435.44 336.96 441.98 C 330.64 446.50 322.79 447.83 315.34 449.38 C 314.34 448.02 313.34 446.67 312.35 445.33 C 318.02 441.33 325.28 440.87 331.09 437.15 C 336.93 433.90 342.52 430.02 347.03 425.05 C 356.29 414.96 366.57 405.64 373.94 393.99 C 376.32 391.01 376.66 387.17 377.67 383.64 C 363.04 381.26 349.23 387.34 334.95 389.10 C 316.97 392.26 301.63 403.20 289.17 416.06 C 283.15 413.03 277.01 410.23 270.76 407.71 C 271.04 403.54 270.55 399.30 271.39 395.19 C 286.12 373.89 309.07 358.98 321.59 335.91 C 309.18 335.91 297.30 340.02 284.91 340.31 C 279.69 340.29 275.90 344.61 270.79 345.08 C 259.93 346.75 248.74 348.00 238.65 352.64 C 231.54 355.96 223.91 358.12 216.17 359.31 C 210.00 360.16 203.39 360.69 197.80 357.50 C 197.87 354.57 197.93 351.65 198.00 348.74 C 226.95 341.28 256.48 336.31 285.56 329.39 C 293.94 327.32 302.02 324.02 310.64 322.95 C 316.67 322.03 322.82 321.81 328.80 320.56 C 335.99 319.00 340.23 312.26 343.12 306.07 C 350.82 290.15 358.31 274.13 366.21 258.31 C 364.45 256.75 362.69 255.21 360.93 253.67 C 352.72 255.89 344.10 255.88 335.85 257.85 C 334.06 258.38 331.81 259.08 331.31 261.15 C 328.57 269.93 329.84 280.31 323.87 287.85 C 319.66 293.07 310.73 290.64 308.08 284.97 C 304.70 279.66 305.59 273.06 303.53 267.34 C 301.45 263.83 296.36 265.64 293.39 266.30 C 284.87 268.18 277.71 273.29 269.80 276.65 C 269.61 286.10 268.31 295.65 263.70 304.05 C 261.01 301.43 256.48 299.43 256.45 295.15 C 256.17 289.39 256.77 283.54 255.60 277.84 C 247.98 279.94 240.31 281.83 232.70 283.94 C 229.81 280.18 225.55 276.41 225.44 271.31 C 228.35 262.51 235.22 255.78 239.90 247.91 C 244.73 239.64 252.58 233.94 259.05 227.08 C 269.36 214.79 278.50 201.23 291.25 191.25 C 297.05 186.56 302.32 181.26 307.36 175.77 C 303.90 175.71 300.40 175.29 296.98 175.92 C 285.24 178.31 273.23 180.67 262.70 186.69 C 258.90 189.03 254.99 185.82 251.60 184.23 C 251.48 174.63 252.13 165.00 256.12 156.12 C 261.44 142.88 264.45 128.74 271.07 116.04 C 274.15 109.80 277.80 103.82 280.10 97.24 C 281.61 91.07 279.60 84.95 279.16 78.81 M 249.69 260.98 C 250.84 260.68 252.00 260.38 253.17 260.07 C 252.91 258.53 252.65 257.00 252.39 255.47 C 251.45 257.29 250.56 259.13 249.69 260.98 Z"
             id="path1" />
          <path
             fill="currentColor"
             d=" M 159.59 93.90 C 163.94 91.95 168.18 88.26 173.29 89.70 C 179.15 92.17 184.20 96.15 189.13 100.10 C 187.51 107.32 185.42 114.51 185.47 121.99 C 185.60 128.28 183.63 134.32 182.64 140.48 C 180.69 150.78 181.15 161.42 182.90 171.72 C 186.84 171.70 190.79 171.69 194.72 171.90 C 188.10 188.56 172.87 202.66 175.18 222.00 C 176.17 246.98 178.44 271.92 177.58 296.94 C 182.16 321.97 184.41 347.68 181.40 373.03 C 179.68 388.80 183.42 404.72 180.38 420.38 C 179.32 425.90 175.64 431.61 169.69 432.51 C 165.76 432.74 162.01 430.89 158.34 429.80 C 155.91 427.01 154.60 423.43 152.30 420.54 C 147.44 414.43 140.25 410.70 135.22 404.78 C 135.52 402.41 136.65 400.28 137.58 398.12 C 142.19 397.33 148.21 400.51 152.29 397.42 C 158.77 385.14 159.73 370.61 160.04 357.01 C 159.97 327.50 160.18 297.98 159.81 268.47 C 148.29 274.88 141.97 286.83 133.06 296.02 C 122.66 303.75 111.76 310.80 101.08 318.13 C 97.86 320.09 94.28 323.49 90.15 321.94 C 80.91 319.24 73.90 311.76 68.55 304.05 C 81.07 291.20 99.93 290.33 115.05 282.06 C 131.28 273.17 147.30 263.88 164.04 255.96 C 164.03 247.07 164.22 238.18 163.67 229.31 C 163.29 222.18 161.02 215.39 159.80 208.41 C 148.90 211.89 137.62 214.68 126.11 214.76 C 113.94 213.32 104.07 204.38 97.45 194.56 C 106.35 191.16 116.16 192.62 125.44 191.39 C 135.44 189.89 145.52 188.71 155.37 186.35 C 161.29 184.97 166.08 179.36 165.02 173.00 C 166.62 163.33 160.81 153.45 164.54 144.09 C 167.29 133.47 168.21 122.37 167.45 111.43 C 166.79 104.90 162.52 99.58 159.59 93.90 Z"
             id="path2" />
        </g>
      </g>
    </g>
  </g>
</svg>
